<svg xmlns="http://www.w3.org/2000/svg" width="60" height="60" viewBox="0 0 60 60"><g><g><path fill="#693dc1" d="M57.877 23.57l-14.86 14.86a21.368 21.368 0 0 0-.275-3.832l15.173-15.173a19.708 19.708 0 0 1-.038 4.145zm-15.57 8.999a21.15 21.15 0 0 0-1.064-3.043L56.64 14.129a19.4 19.4 0 0 1 .949 3.158zm-1.159 7.73l-.462.462a19.676 19.676 0 0 1-4.146.039l4.647-4.647a19.708 19.708 0 0 1-.039 4.146zm-6.746.175a19.39 19.39 0 0 1-3.158-.95l8.667-8.667c.402 1.014.72 2.07.95 3.158zM27 37.197l10.584-10.583a19.596 19.596 0 0 1 1.56 2.547l-9.596 9.596A19.634 19.634 0 0 1 27 37.197zm-3.423-3.148l10.859-10.86a19.77 19.77 0 0 1 2.06 2.048L25.623 36.108a19.746 19.746 0 0 1-2.047-2.06zm-1.083-1.382a19.599 19.599 0 0 1-1.548-2.56l9.549-9.548c.894.452 1.75.97 2.56 1.547zm-3.243-7.436l6.367-6.367c1.093.223 2.153.538 3.172.935l-8.604 8.605a19.413 19.413 0 0 1-.935-3.173zm-.313-2.151a19.698 19.698 0 0 1 .069-4.176l.282-.282a19.633 19.633 0 0 1 4.178-.07zM36.02 1.89a19.668 19.668 0 0 1 4.175-.068L25.03 16.988a21.394 21.394 0 0 0-3.326-.26c-.177 0-.354.005-.53.01zm6.326.245a19.41 19.41 0 0 1 3.173.935L30.125 18.464a21.144 21.144 0 0 0-3.055-1.051zm7.437 3.242L34.3 20.86a21.382 21.382 0 0 0-2.515-1.592L47.223 3.83c.895.451 1.75.969 2.56 1.547zm3.44 3.13L37.73 24.005a21.471 21.471 0 0 0-2.058-2.05L51.164 6.461a19.757 19.757 0 0 1 2.06 2.048zm1.09 1.377a19.611 19.611 0 0 1 1.559 2.547l-15.44 15.44a21.39 21.39 0 0 0-1.602-2.505zm5.082 7.556a21.143 21.143 0 0 0-1.638-5.117.865.865 0 0 0-.081-.174 21.363 21.363 0 0 0-2.52-4.037.873.873 0 0 0-.132-.172l-.022-.02a21.503 21.503 0 0 0-3.252-3.236l-.02-.022a.87.87 0 0 0-.176-.135 21.36 21.36 0 0 0-4.051-2.499.857.857 0 0 0-.173-.08A21.136 21.136 0 0 0 42.186.33 21.34 21.34 0 0 0 35.53.198L35.52.2c-9.003 1.235-16.232 8.113-17.993 16.94-2.31.461-4.536 1.302-6.577 2.496a.871.871 0 0 0 .88 1.504 19.467 19.467 0 0 1 5.414-2.155 21.462 21.462 0 0 0 .215 6.153c.323 1.778.868 3.48 1.604 5.076.02.06.048.118.081.173a21.367 21.367 0 0 0 2.5 4.05.87.87 0 0 0 .135.178c.006.007.014.012.021.019a21.508 21.508 0 0 0 3.237 3.252l.02.022a.87.87 0 0 0 .171.132 21.362 21.362 0 0 0 4.037 2.52.862.862 0 0 0 .175.081 21.138 21.138 0 0 0 5.116 1.639 21.352 21.352 0 0 0 6.21.226C38.74 51.157 30.962 57.62 21.703 57.62c-10.793 0-19.575-8.781-19.575-19.575 0-5.442 2.18-10.498 6.14-14.236a.871.871 0 0 0-1.196-1.267 21.243 21.243 0 0 0-4.887 6.918 21.174 21.174 0 0 0-1.799 8.586c0 11.754 9.563 21.317 21.317 21.317 10.325 0 18.958-7.38 20.905-17.14 8.88-1.772 15.787-9.075 16.963-18.152l.002-.016a21.429 21.429 0 0 0-.179-6.614z"/></g></g></svg>